<mxfile host="65bd71144e">
    <diagram id="MbO1F1-AU7AEPvD1gtbR" name="Page-1">
        <mxGraphModel dx="1522" dy="308" grid="1" gridSize="10" guides="1" tooltips="1" connect="1" arrows="1" fold="1" page="1" pageScale="1" pageWidth="850" pageHeight="1100" math="0" shadow="0">
            <root>
                <mxCell id="0"/>
                <mxCell id="1" parent="0"/>
                <mxCell id="Aho0608CdJAPeJk4nf0i-1" value="&lt;div&gt;&lt;b&gt;mt&lt;/b&gt;:http://emmo.info/emmo/domain/mechanical-testing#&lt;/div&gt;&lt;div&gt;&lt;b&gt;sd:&lt;/b&gt;http://www.semanticweb.org/stahl-digital#&lt;/div&gt;&lt;div&gt;&lt;b&gt;mero&lt;/b&gt;:http://emmo.info/emmo/top/mereotopology#&lt;/div&gt;&lt;div&gt;&lt;b&gt;holistic:http://emmo.info/emmo/middle/holistic#&lt;/b&gt;&lt;br&gt;&lt;/div&gt;&lt;div&gt;&lt;b&gt;semiotics:http://emmo.info/emmo/middle/semiotics#&lt;/b&gt;&lt;br&gt;&lt;/div&gt;&lt;div&gt;&lt;b&gt;reductionistics:http://emmo.info/emmo/middle/reductionistic#&lt;/b&gt;&lt;br&gt;&lt;/div&gt;&lt;div&gt;&lt;b&gt;perc&lt;/b&gt;:http://emmo.info/emmo/middle/perceptual#&lt;/div&gt;&lt;span style=&quot;font-size: 11px ; text-align: center ; background-color: rgb(255 , 255 , 255)&quot;&gt;&lt;b&gt;reductionistic:&lt;/b&gt;&lt;/span&gt;http://emmo.info/emmo/middle/reductionistic#&lt;br&gt;&lt;span style=&quot;text-align: center ; background-color: rgb(255 , 255 , 255)&quot;&gt;&lt;span style=&quot;font-size: 11px&quot;&gt;&lt;b&gt;isq:&lt;/b&gt;http://emmo.info/emmo/middle/isq#&lt;/span&gt;&lt;/span&gt;&lt;br&gt;&lt;span style=&quot;text-align: center ; background-color: rgb(255 , 255 , 255)&quot;&gt;&lt;span style=&quot;font-size: 11px&quot;&gt;&lt;b&gt;method:&lt;/b&gt;http://tensile-test-method.org#&lt;br&gt;&lt;/span&gt;&lt;/span&gt;&lt;span style=&quot;text-align: center ; background-color: rgb(255 , 255 , 255)&quot;&gt;&lt;b&gt;rdfs&lt;/b&gt;:http://www.w3.org/2000/01/rdf-schema#&lt;br&gt;&lt;b&gt;xsd&lt;/b&gt;:&lt;/span&gt;&lt;span style=&quot;color: rgb(51 , 51 , 51) ; font-family: &amp;#34;arial&amp;#34; , &amp;#34;helvetica&amp;#34; , sans-serif ; background-color: rgb(253 , 253 , 253)&quot;&gt;http://www.w3.org/2001/XMLSchema#&lt;/span&gt;&lt;span style=&quot;text-align: center ; background-color: rgb(255 , 255 , 255)&quot;&gt;&lt;br&gt;&lt;/span&gt;" style="shape=note;whiteSpace=wrap;html=1;backgroundOutline=1;darkOpacity=0.05;align=left;" parent="1" vertex="1">
                    <mxGeometry x="40" y="20" width="400" height="240" as="geometry"/>
                </mxCell>
                <mxCell id="Aho0608CdJAPeJk4nf0i-2" value="&lt;div&gt;&lt;b&gt;dc:creator:&lt;/b&gt;&amp;nbsp;creator_1&lt;/div&gt;&lt;div&gt;&lt;b&gt;owl:versionInfo:&lt;/b&gt; 0.0.1&lt;/div&gt;&lt;div&gt;&lt;b&gt;dc:title:&lt;/b&gt;&amp;nbsp;EMMO ABox minimal&lt;/div&gt;" style="shape=document;whiteSpace=wrap;html=1;boundedLbl=1;labelBackgroundColor=#ffffff;strokeColor=#000000;fontSize=12;fontColor=#000000;size=0.23333333333333334;align=left;" parent="1" vertex="1">
                    <mxGeometry x="40" y="320" width="253" height="90" as="geometry"/>
                </mxCell>
                <mxCell id="52x7mqhV2QeOhI0MQU4t-1" value="sd:TensileTestExperiment" style="rounded=0;whiteSpace=wrap;html=1;snapToPoint=1;points=[[0.1,0],[0.2,0],[0.3,0],[0.4,0],[0.5,0],[0.6,0],[0.7,0],[0.8,0],[0.9,0],[0,0.1],[0,0.3],[0,0.5],[0,0.7],[0,0.9],[0.1,1],[0.2,1],[0.3,1],[0.4,1],[0.5,1],[0.6,1],[0.7,1],[0.8,1],[0.9,1],[1,0.1],[1,0.3],[1,0.5],[1,0.7],[1,0.9]];fillColor=#d5e8d4;strokeColor=#82b366;" parent="1" vertex="1">
                    <mxGeometry x="50" y="460" width="180" height="30" as="geometry"/>
                </mxCell>
                <mxCell id="52x7mqhV2QeOhI0MQU4t-13" value="&lt;span style=&quot;text-align: left&quot;&gt;holistic:hasParticipant&lt;/span&gt;" style="edgeStyle=orthogonalEdgeStyle;rounded=0;orthogonalLoop=1;jettySize=auto;html=1;entryX=0;entryY=0.5;entryDx=0;entryDy=0;strokeWidth=3;fillColor=#76608a;strokeColor=#432D57;" parent="1" source="52x7mqhV2QeOhI0MQU4t-2" target="52x7mqhV2QeOhI0MQU4t-10" edge="1">
                    <mxGeometry relative="1" as="geometry"/>
                </mxCell>
                <mxCell id="52x7mqhV2QeOhI0MQU4t-16" style="edgeStyle=orthogonalEdgeStyle;rounded=0;orthogonalLoop=1;jettySize=auto;html=1;entryX=0;entryY=0.5;entryDx=0;entryDy=0;strokeWidth=3;fillColor=#fa6800;strokeColor=#C73500;" parent="1" source="52x7mqhV2QeOhI0MQU4t-2" target="52x7mqhV2QeOhI0MQU4t-15" edge="1">
                    <mxGeometry relative="1" as="geometry">
                        <Array as="points">
                            <mxPoint x="130" y="605"/>
                        </Array>
                    </mxGeometry>
                </mxCell>
                <mxCell id="52x7mqhV2QeOhI0MQU4t-17" value="&lt;div&gt;semiotics:hasSign&lt;/div&gt;" style="edgeLabel;html=1;align=center;verticalAlign=middle;resizable=0;points=[];" parent="52x7mqhV2QeOhI0MQU4t-16" vertex="1" connectable="0">
                    <mxGeometry x="0.08" y="-1" relative="1" as="geometry">
                        <mxPoint as="offset"/>
                    </mxGeometry>
                </mxCell>
                <mxCell id="K1DR-HrEcx6b5tSy_DyY-3" style="edgeStyle=orthogonalEdgeStyle;rounded=0;orthogonalLoop=1;jettySize=auto;html=1;entryX=0;entryY=0.5;entryDx=0;entryDy=0;strokeWidth=3;fillColor=#fa6800;strokeColor=#C73500;" parent="1" source="52x7mqhV2QeOhI0MQU4t-2" target="52x7mqhV2QeOhI0MQU4t-19" edge="1">
                    <mxGeometry relative="1" as="geometry">
                        <Array as="points">
                            <mxPoint x="130" y="715"/>
                        </Array>
                    </mxGeometry>
                </mxCell>
                <mxCell id="K1DR-HrEcx6b5tSy_DyY-4" value="&lt;span style=&quot;color: rgba(0 , 0 , 0 , 0) ; font-family: monospace ; font-size: 0px ; background-color: rgb(248 , 249 , 250)&quot;&gt;%3CmxGraphModel%3E%3Croot%3E%3CmxCell%20id%3D%220%22%2F%3E%3CmxCell%20id%3D%221%22%20parent%3D%220%22%2F%3E%3CmxCell%20id%3D%222%22%20value%3D%22%26lt%3Bdiv%20style%3D%26quot%3Btext-align%3A%20left%26quot%3B%26gt%3Bsemiotics%3A%26lt%3Bspan%20style%3D%26quot%3Bfont-size%3A%2012px%20%3B%20background-color%3A%20rgb(248%20%2C%20249%20%2C%20250)%26quot%3B%26gt%3BhasSign%26lt%3B%2Fspan%26gt%3B%26lt%3B%2Fdiv%26gt%3B%22%20style%3D%22edgeLabel%3Bhtml%3D1%3Balign%3Dcenter%3BverticalAlign%3Dmiddle%3Bresizable%3D0%3Bpoints%3D%5B%5D%3B%22%20vertex%3D%221%22%20connectable%3D%220%22%20parent%3D%221%22%3E%3CmxGeometry%20x%3D%22366.46939482317134%22%20y%3D%22606.0315490960609%22%20as%3D%22geometry%22%2F%3E%3C%2FmxCell%3E%3C%2Froot%3E%3C%2FmxGraphModel%3E&lt;/span&gt;" style="edgeLabel;html=1;align=center;verticalAlign=middle;resizable=0;points=[];" parent="K1DR-HrEcx6b5tSy_DyY-3" vertex="1" connectable="0">
                    <mxGeometry x="0.2391" y="3" relative="1" as="geometry">
                        <mxPoint as="offset"/>
                    </mxGeometry>
                </mxCell>
                <mxCell id="K1DR-HrEcx6b5tSy_DyY-5" value="&lt;span style=&quot;color: rgba(0 , 0 , 0 , 0) ; font-family: monospace ; font-size: 0px ; background-color: rgb(248 , 249 , 250)&quot;&gt;%3CmxGraphModel%3E%3Croot%3E%3CmxCell%20id%3D%220%22%2F%3E%3CmxCell%20id%3D%221%22%20parent%3D%220%22%2F%3E%3CmxCell%20id%3D%222%22%20value%3D%22%26lt%3Bdiv%20style%3D%26quot%3Btext-align%3A%20left%26quot%3B%26gt%3Bsemiotics%3A%26lt%3Bspan%20style%3D%26quot%3Bfont-size%3A%2012px%20%3B%20background-color%3A%20rgb(248%20%2C%20249%20%2C%20250)%26quot%3B%26gt%3BhasSign%26lt%3B%2Fspan%26gt%3B%26lt%3B%2Fdiv%26gt%3B%22%20style%3D%22edgeLabel%3Bhtml%3D1%3Balign%3Dcenter%3BverticalAlign%3Dmiddle%3Bresizable%3D0%3Bpoints%3D%5B%5D%3B%22%20vertex%3D%221%22%20connectable%3D%220%22%20parent%3D%221%22%3E%3CmxGeometry%20x%3D%22366.46939482317134%22%20y%3D%22606.0315490960609%22%20as%3D%22geometry%22%2F%3E%3C%2FmxCell%3E%3C%2Froot%3E%3C%2FmxGraphModel%3E&lt;/span&gt;" style="edgeLabel;html=1;align=center;verticalAlign=middle;resizable=0;points=[];" parent="K1DR-HrEcx6b5tSy_DyY-3" vertex="1" connectable="0">
                    <mxGeometry x="0.2424" y="1" relative="1" as="geometry">
                        <mxPoint as="offset"/>
                    </mxGeometry>
                </mxCell>
                <mxCell id="K1DR-HrEcx6b5tSy_DyY-6" value="semiotics:hasSign" style="edgeLabel;html=1;align=center;verticalAlign=middle;resizable=0;points=[];" parent="K1DR-HrEcx6b5tSy_DyY-3" vertex="1" connectable="0">
                    <mxGeometry x="0.2164" y="-1" relative="1" as="geometry">
                        <mxPoint as="offset"/>
                    </mxGeometry>
                </mxCell>
                <mxCell id="K1DR-HrEcx6b5tSy_DyY-8" style="edgeStyle=orthogonalEdgeStyle;rounded=0;orthogonalLoop=1;jettySize=auto;html=1;entryX=0;entryY=0.5;entryDx=0;entryDy=0;strokeWidth=3;fillColor=#fa6800;strokeColor=#C73500;" parent="1" source="52x7mqhV2QeOhI0MQU4t-2" target="0ehg9j5WhLLIWPfiLfwA-8" edge="1">
                    <mxGeometry relative="1" as="geometry">
                        <Array as="points">
                            <mxPoint x="130" y="815"/>
                        </Array>
                    </mxGeometry>
                </mxCell>
                <mxCell id="K1DR-HrEcx6b5tSy_DyY-12" value="semiotics:&lt;font style=&quot;font-size: 11px&quot;&gt;hasSign&lt;/font&gt;" style="edgeLabel;html=1;align=center;verticalAlign=middle;resizable=0;points=[];" parent="K1DR-HrEcx6b5tSy_DyY-8" vertex="1" connectable="0">
                    <mxGeometry x="0.3391" y="-2" relative="1" as="geometry">
                        <mxPoint as="offset"/>
                    </mxGeometry>
                </mxCell>
                <mxCell id="K1DR-HrEcx6b5tSy_DyY-9" style="edgeStyle=orthogonalEdgeStyle;rounded=0;orthogonalLoop=1;jettySize=auto;html=1;entryX=0;entryY=0.5;entryDx=0;entryDy=0;strokeWidth=3;fillColor=#f0a30a;strokeColor=#BD7000;" parent="1" source="52x7mqhV2QeOhI0MQU4t-2" target="0ehg9j5WhLLIWPfiLfwA-12" edge="1">
                    <mxGeometry relative="1" as="geometry">
                        <Array as="points">
                            <mxPoint x="130" y="905"/>
                        </Array>
                    </mxGeometry>
                </mxCell>
                <mxCell id="K1DR-HrEcx6b5tSy_DyY-13" value="mero:hasMember" style="edgeLabel;html=1;align=center;verticalAlign=middle;resizable=0;points=[];" parent="K1DR-HrEcx6b5tSy_DyY-9" vertex="1" connectable="0">
                    <mxGeometry x="0.4078" relative="1" as="geometry">
                        <mxPoint as="offset"/>
                    </mxGeometry>
                </mxCell>
                <mxCell id="K1DR-HrEcx6b5tSy_DyY-10" style="edgeStyle=orthogonalEdgeStyle;rounded=0;orthogonalLoop=1;jettySize=auto;html=1;entryX=0;entryY=0.7;entryDx=0;entryDy=0;strokeWidth=3;fillColor=#f0a30a;strokeColor=#BD7000;" parent="1" source="52x7mqhV2QeOhI0MQU4t-2" target="0ehg9j5WhLLIWPfiLfwA-17" edge="1">
                    <mxGeometry relative="1" as="geometry">
                        <Array as="points">
                            <mxPoint x="130" y="1080"/>
                            <mxPoint x="640" y="1080"/>
                        </Array>
                    </mxGeometry>
                </mxCell>
                <mxCell id="K1DR-HrEcx6b5tSy_DyY-14" value="mero:hasMember" style="edgeLabel;html=1;align=center;verticalAlign=middle;resizable=0;points=[];" parent="K1DR-HrEcx6b5tSy_DyY-10" vertex="1" connectable="0">
                    <mxGeometry x="0.4824" y="3" relative="1" as="geometry">
                        <mxPoint as="offset"/>
                    </mxGeometry>
                </mxCell>
                <mxCell id="K1DR-HrEcx6b5tSy_DyY-11" style="edgeStyle=orthogonalEdgeStyle;rounded=0;orthogonalLoop=1;jettySize=auto;html=1;entryX=0;entryY=0.5;entryDx=0;entryDy=0;strokeWidth=3;fillColor=#f0a30a;strokeColor=#BD7000;" parent="1" source="52x7mqhV2QeOhI0MQU4t-2" target="0ehg9j5WhLLIWPfiLfwA-21" edge="1">
                    <mxGeometry relative="1" as="geometry">
                        <Array as="points">
                            <mxPoint x="130" y="1145"/>
                        </Array>
                    </mxGeometry>
                </mxCell>
                <mxCell id="K1DR-HrEcx6b5tSy_DyY-15" value="mero:hasMember" style="edgeLabel;html=1;align=center;verticalAlign=middle;resizable=0;points=[];" parent="K1DR-HrEcx6b5tSy_DyY-11" vertex="1" connectable="0">
                    <mxGeometry x="0.5143" relative="1" as="geometry">
                        <mxPoint as="offset"/>
                    </mxGeometry>
                </mxCell>
                <mxCell id="K1DR-HrEcx6b5tSy_DyY-37" style="edgeStyle=orthogonalEdgeStyle;rounded=0;orthogonalLoop=1;jettySize=auto;html=1;entryX=1;entryY=0.7;entryDx=0;entryDy=0;strokeWidth=3;fillColor=#e51400;strokeColor=#B20000;" parent="1" source="52x7mqhV2QeOhI0MQU4t-2" target="K1DR-HrEcx6b5tSy_DyY-28" edge="1">
                    <mxGeometry relative="1" as="geometry">
                        <Array as="points">
                            <mxPoint x="140" y="621"/>
                        </Array>
                    </mxGeometry>
                </mxCell>
                <mxCell id="K1DR-HrEcx6b5tSy_DyY-42" value="mt:hasOutput" style="edgeLabel;html=1;align=center;verticalAlign=middle;resizable=0;points=[];" parent="K1DR-HrEcx6b5tSy_DyY-37" vertex="1" connectable="0">
                    <mxGeometry x="0.1496" y="-1" relative="1" as="geometry">
                        <mxPoint as="offset"/>
                    </mxGeometry>
                </mxCell>
                <mxCell id="K1DR-HrEcx6b5tSy_DyY-38" style="edgeStyle=orthogonalEdgeStyle;rounded=0;orthogonalLoop=1;jettySize=auto;html=1;entryX=1;entryY=0.7;entryDx=0;entryDy=0;strokeWidth=3;fillColor=#e51400;strokeColor=#B20000;" parent="1" source="52x7mqhV2QeOhI0MQU4t-2" target="K1DR-HrEcx6b5tSy_DyY-30" edge="1">
                    <mxGeometry relative="1" as="geometry">
                        <Array as="points">
                            <mxPoint x="140" y="731"/>
                        </Array>
                    </mxGeometry>
                </mxCell>
                <mxCell id="K1DR-HrEcx6b5tSy_DyY-45" value="mt:hasOutput" style="edgeLabel;html=1;align=center;verticalAlign=middle;resizable=0;points=[];" parent="K1DR-HrEcx6b5tSy_DyY-38" vertex="1" connectable="0">
                    <mxGeometry x="0.4772" y="1" relative="1" as="geometry">
                        <mxPoint as="offset"/>
                    </mxGeometry>
                </mxCell>
                <mxCell id="K1DR-HrEcx6b5tSy_DyY-39" style="edgeStyle=orthogonalEdgeStyle;rounded=0;orthogonalLoop=1;jettySize=auto;html=1;entryX=1;entryY=0.7;entryDx=0;entryDy=0;strokeWidth=3;fillColor=#e51400;strokeColor=#B20000;" parent="1" source="52x7mqhV2QeOhI0MQU4t-2" target="K1DR-HrEcx6b5tSy_DyY-32" edge="1">
                    <mxGeometry relative="1" as="geometry">
                        <Array as="points">
                            <mxPoint x="140" y="831"/>
                        </Array>
                    </mxGeometry>
                </mxCell>
                <mxCell id="K1DR-HrEcx6b5tSy_DyY-46" value="mt:hasOutput" style="edgeLabel;html=1;align=center;verticalAlign=middle;resizable=0;points=[];" parent="K1DR-HrEcx6b5tSy_DyY-39" vertex="1" connectable="0">
                    <mxGeometry x="0.5004" relative="1" as="geometry">
                        <mxPoint as="offset"/>
                    </mxGeometry>
                </mxCell>
                <mxCell id="K1DR-HrEcx6b5tSy_DyY-40" style="edgeStyle=orthogonalEdgeStyle;rounded=0;orthogonalLoop=1;jettySize=auto;html=1;entryX=1;entryY=0.5;entryDx=0;entryDy=0;strokeWidth=3;fillColor=#e51400;strokeColor=#B20000;" parent="1" source="52x7mqhV2QeOhI0MQU4t-2" target="K1DR-HrEcx6b5tSy_DyY-34" edge="1">
                    <mxGeometry relative="1" as="geometry">
                        <Array as="points">
                            <mxPoint x="140" y="920"/>
                        </Array>
                    </mxGeometry>
                </mxCell>
                <mxCell id="K1DR-HrEcx6b5tSy_DyY-47" value="mt:hasOutput" style="edgeLabel;html=1;align=center;verticalAlign=middle;resizable=0;points=[];" parent="K1DR-HrEcx6b5tSy_DyY-40" vertex="1" connectable="0">
                    <mxGeometry x="0.5799" relative="1" as="geometry">
                        <mxPoint as="offset"/>
                    </mxGeometry>
                </mxCell>
                <mxCell id="K1DR-HrEcx6b5tSy_DyY-41" style="edgeStyle=orthogonalEdgeStyle;rounded=0;orthogonalLoop=1;jettySize=auto;html=1;entryX=1;entryY=0.7;entryDx=0;entryDy=0;strokeWidth=3;fillColor=#e51400;strokeColor=#B20000;" parent="1" source="52x7mqhV2QeOhI0MQU4t-2" target="K1DR-HrEcx6b5tSy_DyY-36" edge="1">
                    <mxGeometry relative="1" as="geometry">
                        <Array as="points">
                            <mxPoint x="140" y="1011"/>
                        </Array>
                    </mxGeometry>
                </mxCell>
                <mxCell id="K1DR-HrEcx6b5tSy_DyY-48" value="mt:hasOutput" style="edgeLabel;html=1;align=center;verticalAlign=middle;resizable=0;points=[];" parent="K1DR-HrEcx6b5tSy_DyY-41" vertex="1" connectable="0">
                    <mxGeometry x="0.6567" y="1" relative="1" as="geometry">
                        <mxPoint as="offset"/>
                    </mxGeometry>
                </mxCell>
                <mxCell id="8oTXb7bl4t1_1FCLeJAp-29" style="edgeStyle=orthogonalEdgeStyle;rounded=0;orthogonalLoop=1;jettySize=auto;html=1;entryX=0;entryY=0.5;entryDx=0;entryDy=0;strokeWidth=3;fillColor=#fa6800;strokeColor=#C73500;" parent="1" source="52x7mqhV2QeOhI0MQU4t-2" target="8oTXb7bl4t1_1FCLeJAp-2" edge="1">
                    <mxGeometry relative="1" as="geometry">
                        <Array as="points">
                            <mxPoint x="140" y="1305"/>
                        </Array>
                    </mxGeometry>
                </mxCell>
                <mxCell id="8oTXb7bl4t1_1FCLeJAp-31" value="semiotics:hasSign" style="edgeLabel;html=1;align=center;verticalAlign=middle;resizable=0;points=[];" parent="8oTXb7bl4t1_1FCLeJAp-29" vertex="1" connectable="0">
                    <mxGeometry x="0.5987" y="-2" relative="1" as="geometry">
                        <mxPoint as="offset"/>
                    </mxGeometry>
                </mxCell>
                <mxCell id="52x7mqhV2QeOhI0MQU4t-2" value="&lt;u&gt;method:&lt;/u&gt;TensileTestExperiment" style="rounded=0;whiteSpace=wrap;html=1;snapToPoint=1;points=[[0.1,0],[0.2,0],[0.3,0],[0.4,0],[0.5,0],[0.6,0],[0.7,0],[0.8,0],[0.9,0],[0,0.1],[0,0.3],[0,0.5],[0,0.7],[0,0.9],[0.1,1],[0.2,1],[0.3,1],[0.4,1],[0.5,1],[0.6,1],[0.7,1],[0.8,1],[0.9,1],[1,0.1],[1,0.3],[1,0.5],[1,0.7],[1,0.9]];fillColor=#fff2cc;strokeColor=#d6b656;" parent="1" vertex="1">
                    <mxGeometry x="50" y="490" width="180" height="30" as="geometry"/>
                </mxCell>
                <mxCell id="52x7mqhV2QeOhI0MQU4t-9" value="sd:TestingFacility" style="rounded=0;whiteSpace=wrap;html=1;snapToPoint=1;points=[[0.1,0],[0.2,0],[0.3,0],[0.4,0],[0.5,0],[0.6,0],[0.7,0],[0.8,0],[0.9,0],[0,0.1],[0,0.3],[0,0.5],[0,0.7],[0,0.9],[0.1,1],[0.2,1],[0.3,1],[0.4,1],[0.5,1],[0.6,1],[0.7,1],[0.8,1],[0.9,1],[1,0.1],[1,0.3],[1,0.5],[1,0.7],[1,0.9]];fillColor=#d5e8d4;strokeColor=#82b366;" parent="1" vertex="1">
                    <mxGeometry x="640" y="460" width="160" height="30" as="geometry"/>
                </mxCell>
                <mxCell id="52x7mqhV2QeOhI0MQU4t-10" value="&lt;u&gt;method:&lt;/u&gt;TestingFacility" style="rounded=0;whiteSpace=wrap;html=1;snapToPoint=1;points=[[0.1,0],[0.2,0],[0.3,0],[0.4,0],[0.5,0],[0.6,0],[0.7,0],[0.8,0],[0.9,0],[0,0.1],[0,0.3],[0,0.5],[0,0.7],[0,0.9],[0.1,1],[0.2,1],[0.3,1],[0.4,1],[0.5,1],[0.6,1],[0.7,1],[0.8,1],[0.9,1],[1,0.1],[1,0.3],[1,0.5],[1,0.7],[1,0.9]];fillColor=#fff2cc;strokeColor=#d6b656;" parent="1" vertex="1">
                    <mxGeometry x="640" y="490" width="160" height="30" as="geometry"/>
                </mxCell>
                <mxCell id="52x7mqhV2QeOhI0MQU4t-14" value="sd:ProjectNumber" style="rounded=0;whiteSpace=wrap;html=1;snapToPoint=1;points=[[0.1,0],[0.2,0],[0.3,0],[0.4,0],[0.5,0],[0.6,0],[0.7,0],[0.8,0],[0.9,0],[0,0.1],[0,0.3],[0,0.5],[0,0.7],[0,0.9],[0.1,1],[0.2,1],[0.3,1],[0.4,1],[0.5,1],[0.6,1],[0.7,1],[0.8,1],[0.9,1],[1,0.1],[1,0.3],[1,0.5],[1,0.7],[1,0.9]];fillColor=#d5e8d4;strokeColor=#82b366;" parent="1" vertex="1">
                    <mxGeometry x="640" y="560" width="160" height="30" as="geometry"/>
                </mxCell>
                <mxCell id="52x7mqhV2QeOhI0MQU4t-15" value="&lt;u&gt;method:&lt;/u&gt;ProjectNumber" style="rounded=0;whiteSpace=wrap;html=1;snapToPoint=1;points=[[0.1,0],[0.2,0],[0.3,0],[0.4,0],[0.5,0],[0.6,0],[0.7,0],[0.8,0],[0.9,0],[0,0.1],[0,0.3],[0,0.5],[0,0.7],[0,0.9],[0.1,1],[0.2,1],[0.3,1],[0.4,1],[0.5,1],[0.6,1],[0.7,1],[0.8,1],[0.9,1],[1,0.1],[1,0.3],[1,0.5],[1,0.7],[1,0.9]];fillColor=#fff2cc;strokeColor=#d6b656;" parent="1" vertex="1">
                    <mxGeometry x="640" y="590" width="160" height="30" as="geometry"/>
                </mxCell>
                <mxCell id="52x7mqhV2QeOhI0MQU4t-18" value="sd:ProjectName" style="rounded=0;whiteSpace=wrap;html=1;snapToPoint=1;points=[[0.1,0],[0.2,0],[0.3,0],[0.4,0],[0.5,0],[0.6,0],[0.7,0],[0.8,0],[0.9,0],[0,0.1],[0,0.3],[0,0.5],[0,0.7],[0,0.9],[0.1,1],[0.2,1],[0.3,1],[0.4,1],[0.5,1],[0.6,1],[0.7,1],[0.8,1],[0.9,1],[1,0.1],[1,0.3],[1,0.5],[1,0.7],[1,0.9]];fillColor=#d5e8d4;strokeColor=#82b366;" parent="1" vertex="1">
                    <mxGeometry x="640" y="670" width="160" height="30" as="geometry"/>
                </mxCell>
                <mxCell id="52x7mqhV2QeOhI0MQU4t-19" value="&lt;u&gt;method:&lt;/u&gt;ProjectName" style="rounded=0;whiteSpace=wrap;html=1;snapToPoint=1;points=[[0.1,0],[0.2,0],[0.3,0],[0.4,0],[0.5,0],[0.6,0],[0.7,0],[0.8,0],[0.9,0],[0,0.1],[0,0.3],[0,0.5],[0,0.7],[0,0.9],[0.1,1],[0.2,1],[0.3,1],[0.4,1],[0.5,1],[0.6,1],[0.7,1],[0.8,1],[0.9,1],[1,0.1],[1,0.3],[1,0.5],[1,0.7],[1,0.9]];fillColor=#fff2cc;strokeColor=#d6b656;" parent="1" vertex="1">
                    <mxGeometry x="640" y="700" width="160" height="30" as="geometry"/>
                </mxCell>
                <mxCell id="0ehg9j5WhLLIWPfiLfwA-2" value="Note: For huma readability The skos:prefLabel is used for EMMO relations.&amp;nbsp;&lt;br&gt;This cannot be processed with Chowlk. Therfore the untiliy script Add_EMMO_Uri_To_Diagrams.py needs to applied to this diagram." style="rounded=0;whiteSpace=wrap;html=1;" parent="1" vertex="1">
                    <mxGeometry x="500" y="20" width="330" height="90" as="geometry"/>
                </mxCell>
                <mxCell id="0ehg9j5WhLLIWPfiLfwA-3" value="Class Name" style="rounded=0;whiteSpace=wrap;html=1;fillColor=#d5e8d4;strokeColor=#82b366;" parent="1" vertex="1">
                    <mxGeometry x="500" y="130" width="120" height="40" as="geometry"/>
                </mxCell>
                <mxCell id="0ehg9j5WhLLIWPfiLfwA-4" value="Individual Name" style="rounded=0;whiteSpace=wrap;html=1;fillColor=#fff2cc;strokeColor=#d6b656;" parent="1" vertex="1">
                    <mxGeometry x="500" y="170" width="120" height="40" as="geometry"/>
                </mxCell>
                <mxCell id="0ehg9j5WhLLIWPfiLfwA-7" value="sd:TimeStamp" style="rounded=0;whiteSpace=wrap;html=1;snapToPoint=1;points=[[0.1,0],[0.2,0],[0.3,0],[0.4,0],[0.5,0],[0.6,0],[0.7,0],[0.8,0],[0.9,0],[0,0.1],[0,0.3],[0,0.5],[0,0.7],[0,0.9],[0.1,1],[0.2,1],[0.3,1],[0.4,1],[0.5,1],[0.6,1],[0.7,1],[0.8,1],[0.9,1],[1,0.1],[1,0.3],[1,0.5],[1,0.7],[1,0.9]];fillColor=#d5e8d4;strokeColor=#82b366;" parent="1" vertex="1">
                    <mxGeometry x="640" y="770" width="160" height="30" as="geometry"/>
                </mxCell>
                <mxCell id="0ehg9j5WhLLIWPfiLfwA-8" value="&lt;u&gt;method:&lt;/u&gt;TimeStamp" style="rounded=0;whiteSpace=wrap;html=1;snapToPoint=1;points=[[0.1,0],[0.2,0],[0.3,0],[0.4,0],[0.5,0],[0.6,0],[0.7,0],[0.8,0],[0.9,0],[0,0.1],[0,0.3],[0,0.5],[0,0.7],[0,0.9],[0.1,1],[0.2,1],[0.3,1],[0.4,1],[0.5,1],[0.6,1],[0.7,1],[0.8,1],[0.9,1],[1,0.1],[1,0.3],[1,0.5],[1,0.7],[1,0.9]];fillColor=#fff2cc;strokeColor=#d6b656;" parent="1" vertex="1">
                    <mxGeometry x="640" y="800" width="160" height="30" as="geometry"/>
                </mxCell>
                <mxCell id="0ehg9j5WhLLIWPfiLfwA-11" value="sd:MachineData" style="rounded=0;whiteSpace=wrap;html=1;snapToPoint=1;points=[[0.1,0],[0.2,0],[0.3,0],[0.4,0],[0.5,0],[0.6,0],[0.7,0],[0.8,0],[0.9,0],[0,0.1],[0,0.3],[0,0.5],[0,0.7],[0,0.9],[0.1,1],[0.2,1],[0.3,1],[0.4,1],[0.5,1],[0.6,1],[0.7,1],[0.8,1],[0.9,1],[1,0.1],[1,0.3],[1,0.5],[1,0.7],[1,0.9]];fillColor=#d5e8d4;strokeColor=#82b366;" parent="1" vertex="1">
                    <mxGeometry x="640" y="860" width="160" height="30" as="geometry"/>
                </mxCell>
                <mxCell id="K1DR-HrEcx6b5tSy_DyY-16" style="edgeStyle=orthogonalEdgeStyle;rounded=0;orthogonalLoop=1;jettySize=auto;html=1;entryX=0;entryY=0.7;entryDx=0;entryDy=0;strokeWidth=3;fillColor=#6d8764;strokeColor=#3A5431;" parent="1" source="0ehg9j5WhLLIWPfiLfwA-12" target="0ehg9j5WhLLIWPfiLfwA-17" edge="1">
                    <mxGeometry relative="1" as="geometry">
                        <Array as="points">
                            <mxPoint x="720" y="970"/>
                            <mxPoint x="570" y="970"/>
                            <mxPoint x="570" y="1062"/>
                            <mxPoint x="640" y="1062"/>
                        </Array>
                    </mxGeometry>
                </mxCell>
                <mxCell id="K1DR-HrEcx6b5tSy_DyY-19" value="reductionistics:hasSpatialDirectPart" style="edgeLabel;html=1;align=center;verticalAlign=middle;resizable=0;points=[];" parent="K1DR-HrEcx6b5tSy_DyY-16" vertex="1" connectable="0">
                    <mxGeometry x="-0.0668" y="2" relative="1" as="geometry">
                        <mxPoint as="offset"/>
                    </mxGeometry>
                </mxCell>
                <mxCell id="K1DR-HrEcx6b5tSy_DyY-17" style="edgeStyle=orthogonalEdgeStyle;rounded=0;orthogonalLoop=1;jettySize=auto;html=1;entryX=0;entryY=0.7;entryDx=0;entryDy=0;strokeWidth=3;fillColor=#6d8764;strokeColor=#3A5431;" parent="1" source="0ehg9j5WhLLIWPfiLfwA-12" target="0ehg9j5WhLLIWPfiLfwA-21" edge="1">
                    <mxGeometry relative="1" as="geometry">
                        <Array as="points">
                            <mxPoint x="720" y="940"/>
                            <mxPoint x="500" y="940"/>
                            <mxPoint x="500" y="1151"/>
                        </Array>
                    </mxGeometry>
                </mxCell>
                <mxCell id="K1DR-HrEcx6b5tSy_DyY-18" value="reductionistics:hasSpatialDirectPart" style="edgeLabel;html=1;align=center;verticalAlign=middle;resizable=0;points=[];" parent="K1DR-HrEcx6b5tSy_DyY-17" vertex="1" connectable="0">
                    <mxGeometry x="-0.3523" y="4" relative="1" as="geometry">
                        <mxPoint as="offset"/>
                    </mxGeometry>
                </mxCell>
                <mxCell id="0ehg9j5WhLLIWPfiLfwA-12" value="&lt;u&gt;method:&lt;/u&gt;MachineData" style="rounded=0;whiteSpace=wrap;html=1;snapToPoint=1;points=[[0.1,0],[0.2,0],[0.3,0],[0.4,0],[0.5,0],[0.6,0],[0.7,0],[0.8,0],[0.9,0],[0,0.1],[0,0.3],[0,0.5],[0,0.7],[0,0.9],[0.1,1],[0.2,1],[0.3,1],[0.4,1],[0.5,1],[0.6,1],[0.7,1],[0.8,1],[0.9,1],[1,0.1],[1,0.3],[1,0.5],[1,0.7],[1,0.9]];fillColor=#fff2cc;strokeColor=#d6b656;" parent="1" vertex="1">
                    <mxGeometry x="640" y="890" width="160" height="30" as="geometry"/>
                </mxCell>
                <mxCell id="0ehg9j5WhLLIWPfiLfwA-16" value="sd:ForceMeasuringDevice" style="rounded=0;whiteSpace=wrap;html=1;snapToPoint=1;points=[[0.1,0],[0.2,0],[0.3,0],[0.4,0],[0.5,0],[0.6,0],[0.7,0],[0.8,0],[0.9,0],[0,0.1],[0,0.3],[0,0.5],[0,0.7],[0,0.9],[0.1,1],[0.2,1],[0.3,1],[0.4,1],[0.5,1],[0.6,1],[0.7,1],[0.8,1],[0.9,1],[1,0.1],[1,0.3],[1,0.5],[1,0.7],[1,0.9]];fillColor=#d5e8d4;strokeColor=#82b366;" parent="1" vertex="1">
                    <mxGeometry x="640" y="1010" width="190" height="30" as="geometry"/>
                </mxCell>
                <mxCell id="K1DR-HrEcx6b5tSy_DyY-51" style="edgeStyle=orthogonalEdgeStyle;rounded=0;orthogonalLoop=1;jettySize=auto;html=1;entryX=0.9;entryY=1;entryDx=0;entryDy=0;strokeWidth=3;fillColor=#e51400;strokeColor=#B20000;" parent="1" source="0ehg9j5WhLLIWPfiLfwA-17" target="K1DR-HrEcx6b5tSy_DyY-28" edge="1">
                    <mxGeometry relative="1" as="geometry">
                        <Array as="points">
                            <mxPoint x="-116" y="1055"/>
                        </Array>
                    </mxGeometry>
                </mxCell>
                <mxCell id="K1DR-HrEcx6b5tSy_DyY-52" value="mt:hasOutput" style="edgeLabel;html=1;align=center;verticalAlign=middle;resizable=0;points=[];" parent="K1DR-HrEcx6b5tSy_DyY-51" vertex="1" connectable="0">
                    <mxGeometry x="0.0782" relative="1" as="geometry">
                        <mxPoint x="-4" as="offset"/>
                    </mxGeometry>
                </mxCell>
                <mxCell id="0ehg9j5WhLLIWPfiLfwA-17" value="&lt;u&gt;method:&lt;/u&gt;ForceMeasuringDevice" style="rounded=0;whiteSpace=wrap;html=1;snapToPoint=1;points=[[0.1,0],[0.2,0],[0.3,0],[0.4,0],[0.5,0],[0.6,0],[0.7,0],[0.8,0],[0.9,0],[0,0.1],[0,0.3],[0,0.5],[0,0.7],[0,0.9],[0.1,1],[0.2,1],[0.3,1],[0.4,1],[0.5,1],[0.6,1],[0.7,1],[0.8,1],[0.9,1],[1,0.1],[1,0.3],[1,0.5],[1,0.7],[1,0.9]];fillColor=#fff2cc;strokeColor=#d6b656;" parent="1" vertex="1">
                    <mxGeometry x="640" y="1040" width="190" height="30" as="geometry"/>
                </mxCell>
                <mxCell id="0ehg9j5WhLLIWPfiLfwA-20" value="sd:DisplacementTransducer" style="rounded=0;whiteSpace=wrap;html=1;snapToPoint=1;points=[[0.1,0],[0.2,0],[0.3,0],[0.4,0],[0.5,0],[0.6,0],[0.7,0],[0.8,0],[0.9,0],[0,0.1],[0,0.3],[0,0.5],[0,0.7],[0,0.9],[0.1,1],[0.2,1],[0.3,1],[0.4,1],[0.5,1],[0.6,1],[0.7,1],[0.8,1],[0.9,1],[1,0.1],[1,0.3],[1,0.5],[1,0.7],[1,0.9]];fillColor=#d5e8d4;strokeColor=#82b366;" parent="1" vertex="1">
                    <mxGeometry x="640" y="1100" width="190" height="30" as="geometry"/>
                </mxCell>
                <mxCell id="K1DR-HrEcx6b5tSy_DyY-54" style="edgeStyle=orthogonalEdgeStyle;rounded=0;orthogonalLoop=1;jettySize=auto;html=1;entryX=0.5;entryY=1;entryDx=0;entryDy=0;strokeWidth=3;fillColor=#e51400;strokeColor=#B20000;" parent="1" source="0ehg9j5WhLLIWPfiLfwA-21" target="K1DR-HrEcx6b5tSy_DyY-32" edge="1">
                    <mxGeometry relative="1" as="geometry">
                        <Array as="points">
                            <mxPoint x="735" y="1190"/>
                            <mxPoint x="-180" y="1190"/>
                        </Array>
                    </mxGeometry>
                </mxCell>
                <mxCell id="K1DR-HrEcx6b5tSy_DyY-55" value="mt:hasOutput" style="edgeLabel;html=1;align=center;verticalAlign=middle;resizable=0;points=[];" parent="K1DR-HrEcx6b5tSy_DyY-54" vertex="1" connectable="0">
                    <mxGeometry x="-0.0811" relative="1" as="geometry">
                        <mxPoint as="offset"/>
                    </mxGeometry>
                </mxCell>
                <mxCell id="0ehg9j5WhLLIWPfiLfwA-21" value="&lt;u&gt;method:&lt;/u&gt;DisplacementTransducer" style="rounded=0;whiteSpace=wrap;html=1;snapToPoint=1;points=[[0.1,0],[0.2,0],[0.3,0],[0.4,0],[0.5,0],[0.6,0],[0.7,0],[0.8,0],[0.9,0],[0,0.1],[0,0.3],[0,0.5],[0,0.7],[0,0.9],[0.1,1],[0.2,1],[0.3,1],[0.4,1],[0.5,1],[0.6,1],[0.7,1],[0.8,1],[0.9,1],[1,0.1],[1,0.3],[1,0.5],[1,0.7],[1,0.9]];fillColor=#fff2cc;strokeColor=#d6b656;" parent="1" vertex="1">
                    <mxGeometry x="640" y="1130" width="190" height="30" as="geometry"/>
                </mxCell>
                <mxCell id="K1DR-HrEcx6b5tSy_DyY-27" value="sd:StandardForce" style="rounded=0;whiteSpace=wrap;html=1;snapToPoint=1;points=[[0.1,0],[0.2,0],[0.3,0],[0.4,0],[0.5,0],[0.6,0],[0.7,0],[0.8,0],[0.9,0],[0,0.1],[0,0.3],[0,0.5],[0,0.7],[0,0.9],[0.1,1],[0.2,1],[0.3,1],[0.4,1],[0.5,1],[0.6,1],[0.7,1],[0.8,1],[0.9,1],[1,0.1],[1,0.3],[1,0.5],[1,0.7],[1,0.9]];fillColor=#d5e8d4;strokeColor=#82b366;" parent="1" vertex="1">
                    <mxGeometry x="-260" y="570" width="160" height="30" as="geometry"/>
                </mxCell>
                <mxCell id="K1DR-HrEcx6b5tSy_DyY-28" value="&lt;u&gt;method:&lt;/u&gt;StandardForce" style="rounded=0;whiteSpace=wrap;html=1;snapToPoint=1;points=[[0.1,0],[0.2,0],[0.3,0],[0.4,0],[0.5,0],[0.6,0],[0.7,0],[0.8,0],[0.9,0],[0,0.1],[0,0.3],[0,0.5],[0,0.7],[0,0.9],[0.1,1],[0.2,1],[0.3,1],[0.4,1],[0.5,1],[0.6,1],[0.7,1],[0.8,1],[0.9,1],[1,0.1],[1,0.3],[1,0.5],[1,0.7],[1,0.9]];fillColor=#fff2cc;strokeColor=#d6b656;" parent="1" vertex="1">
                    <mxGeometry x="-260" y="600" width="160" height="30" as="geometry"/>
                </mxCell>
                <mxCell id="K1DR-HrEcx6b5tSy_DyY-29" value="sd:AbsoluteCrossheadTravel" style="rounded=0;whiteSpace=wrap;html=1;snapToPoint=1;points=[[0.1,0],[0.2,0],[0.3,0],[0.4,0],[0.5,0],[0.6,0],[0.7,0],[0.8,0],[0.9,0],[0,0.1],[0,0.3],[0,0.5],[0,0.7],[0,0.9],[0.1,1],[0.2,1],[0.3,1],[0.4,1],[0.5,1],[0.6,1],[0.7,1],[0.8,1],[0.9,1],[1,0.1],[1,0.3],[1,0.5],[1,0.7],[1,0.9]];fillColor=#d5e8d4;strokeColor=#82b366;" parent="1" vertex="1">
                    <mxGeometry x="-260" y="680" width="190" height="30" as="geometry"/>
                </mxCell>
                <mxCell id="K1DR-HrEcx6b5tSy_DyY-30" value="&lt;u&gt;method:&lt;/u&gt;AbsoluteCrossheadTravel" style="rounded=0;whiteSpace=wrap;html=1;snapToPoint=1;points=[[0.1,0],[0.2,0],[0.3,0],[0.4,0],[0.5,0],[0.6,0],[0.7,0],[0.8,0],[0.9,0],[0,0.1],[0,0.3],[0,0.5],[0,0.7],[0,0.9],[0.1,1],[0.2,1],[0.3,1],[0.4,1],[0.5,1],[0.6,1],[0.7,1],[0.8,1],[0.9,1],[1,0.1],[1,0.3],[1,0.5],[1,0.7],[1,0.9]];fillColor=#fff2cc;strokeColor=#d6b656;" parent="1" vertex="1">
                    <mxGeometry x="-260" y="710" width="190" height="30" as="geometry"/>
                </mxCell>
                <mxCell id="K1DR-HrEcx6b5tSy_DyY-31" value="sd:Extension" style="rounded=0;whiteSpace=wrap;html=1;snapToPoint=1;points=[[0.1,0],[0.2,0],[0.3,0],[0.4,0],[0.5,0],[0.6,0],[0.7,0],[0.8,0],[0.9,0],[0,0.1],[0,0.3],[0,0.5],[0,0.7],[0,0.9],[0.1,1],[0.2,1],[0.3,1],[0.4,1],[0.5,1],[0.6,1],[0.7,1],[0.8,1],[0.9,1],[1,0.1],[1,0.3],[1,0.5],[1,0.7],[1,0.9]];fillColor=#d5e8d4;strokeColor=#82b366;" parent="1" vertex="1">
                    <mxGeometry x="-260" y="780" width="160" height="30" as="geometry"/>
                </mxCell>
                <mxCell id="K1DR-HrEcx6b5tSy_DyY-32" value="&lt;u&gt;method:&lt;/u&gt;Extension" style="rounded=0;whiteSpace=wrap;html=1;snapToPoint=1;points=[[0.1,0],[0.2,0],[0.3,0],[0.4,0],[0.5,0],[0.6,0],[0.7,0],[0.8,0],[0.9,0],[0,0.1],[0,0.3],[0,0.5],[0,0.7],[0,0.9],[0.1,1],[0.2,1],[0.3,1],[0.4,1],[0.5,1],[0.6,1],[0.7,1],[0.8,1],[0.9,1],[1,0.1],[1,0.3],[1,0.5],[1,0.7],[1,0.9]];fillColor=#fff2cc;strokeColor=#d6b656;" parent="1" vertex="1">
                    <mxGeometry x="-260" y="810" width="160" height="30" as="geometry"/>
                </mxCell>
                <mxCell id="K1DR-HrEcx6b5tSy_DyY-33" value="sd:WidthChange" style="rounded=0;whiteSpace=wrap;html=1;snapToPoint=1;points=[[0.1,0],[0.2,0],[0.3,0],[0.4,0],[0.5,0],[0.6,0],[0.7,0],[0.8,0],[0.9,0],[0,0.1],[0,0.3],[0,0.5],[0,0.7],[0,0.9],[0.1,1],[0.2,1],[0.3,1],[0.4,1],[0.5,1],[0.6,1],[0.7,1],[0.8,1],[0.9,1],[1,0.1],[1,0.3],[1,0.5],[1,0.7],[1,0.9]];fillColor=#d5e8d4;strokeColor=#82b366;" parent="1" vertex="1">
                    <mxGeometry x="-260" y="875" width="160" height="30" as="geometry"/>
                </mxCell>
                <mxCell id="K1DR-HrEcx6b5tSy_DyY-34" value="&lt;u&gt;method:&lt;/u&gt;WidthChange" style="rounded=0;whiteSpace=wrap;html=1;snapToPoint=1;points=[[0.1,0],[0.2,0],[0.3,0],[0.4,0],[0.5,0],[0.6,0],[0.7,0],[0.8,0],[0.9,0],[0,0.1],[0,0.3],[0,0.5],[0,0.7],[0,0.9],[0.1,1],[0.2,1],[0.3,1],[0.4,1],[0.5,1],[0.6,1],[0.7,1],[0.8,1],[0.9,1],[1,0.1],[1,0.3],[1,0.5],[1,0.7],[1,0.9]];fillColor=#fff2cc;strokeColor=#d6b656;" parent="1" vertex="1">
                    <mxGeometry x="-260" y="905" width="160" height="30" as="geometry"/>
                </mxCell>
                <mxCell id="K1DR-HrEcx6b5tSy_DyY-35" value="sd:PercentageElongation" style="rounded=0;whiteSpace=wrap;html=1;snapToPoint=1;points=[[0.1,0],[0.2,0],[0.3,0],[0.4,0],[0.5,0],[0.6,0],[0.7,0],[0.8,0],[0.9,0],[0,0.1],[0,0.3],[0,0.5],[0,0.7],[0,0.9],[0.1,1],[0.2,1],[0.3,1],[0.4,1],[0.5,1],[0.6,1],[0.7,1],[0.8,1],[0.9,1],[1,0.1],[1,0.3],[1,0.5],[1,0.7],[1,0.9]];fillColor=#d5e8d4;strokeColor=#82b366;" parent="1" vertex="1">
                    <mxGeometry x="-260" y="960" width="180" height="30" as="geometry"/>
                </mxCell>
                <mxCell id="K1DR-HrEcx6b5tSy_DyY-36" value="&lt;u&gt;method:&lt;/u&gt;PercentageElongation" style="rounded=0;whiteSpace=wrap;html=1;snapToPoint=1;points=[[0.1,0],[0.2,0],[0.3,0],[0.4,0],[0.5,0],[0.6,0],[0.7,0],[0.8,0],[0.9,0],[0,0.1],[0,0.3],[0,0.5],[0,0.7],[0,0.9],[0.1,1],[0.2,1],[0.3,1],[0.4,1],[0.5,1],[0.6,1],[0.7,1],[0.8,1],[0.9,1],[1,0.1],[1,0.3],[1,0.5],[1,0.7],[1,0.9]];fillColor=#fff2cc;strokeColor=#d6b656;" parent="1" vertex="1">
                    <mxGeometry x="-260" y="990" width="180" height="30" as="geometry"/>
                </mxCell>
                <mxCell id="8oTXb7bl4t1_1FCLeJAp-1" value="sd:TestStandard" style="rounded=0;whiteSpace=wrap;html=1;snapToPoint=1;points=[[0.1,0],[0.2,0],[0.3,0],[0.4,0],[0.5,0],[0.6,0],[0.7,0],[0.8,0],[0.9,0],[0,0.1],[0,0.3],[0,0.5],[0,0.7],[0,0.9],[0.1,1],[0.2,1],[0.3,1],[0.4,1],[0.5,1],[0.6,1],[0.7,1],[0.8,1],[0.9,1],[1,0.1],[1,0.3],[1,0.5],[1,0.7],[1,0.9]];fillColor=#d5e8d4;strokeColor=#82b366;" parent="1" vertex="1">
                    <mxGeometry x="640" y="1260" width="160" height="30" as="geometry"/>
                </mxCell>
                <mxCell id="8oTXb7bl4t1_1FCLeJAp-2" value="&lt;u&gt;method:TestStandard&lt;/u&gt;" style="rounded=0;whiteSpace=wrap;html=1;snapToPoint=1;points=[[0.1,0],[0.2,0],[0.3,0],[0.4,0],[0.5,0],[0.6,0],[0.7,0],[0.8,0],[0.9,0],[0,0.1],[0,0.3],[0,0.5],[0,0.7],[0,0.9],[0.1,1],[0.2,1],[0.3,1],[0.4,1],[0.5,1],[0.6,1],[0.7,1],[0.8,1],[0.9,1],[1,0.1],[1,0.3],[1,0.5],[1,0.7],[1,0.9]];fillColor=#fff2cc;strokeColor=#d6b656;" parent="1" vertex="1">
                    <mxGeometry x="640" y="1290" width="160" height="30" as="geometry"/>
                </mxCell>
                <mxCell id="8oTXb7bl4t1_1FCLeJAp-3" value="sd:Material" style="rounded=0;whiteSpace=wrap;html=1;snapToPoint=1;points=[[0.1,0],[0.2,0],[0.3,0],[0.4,0],[0.5,0],[0.6,0],[0.7,0],[0.8,0],[0.9,0],[0,0.1],[0,0.3],[0,0.5],[0,0.7],[0,0.9],[0.1,1],[0.2,1],[0.3,1],[0.4,1],[0.5,1],[0.6,1],[0.7,1],[0.8,1],[0.9,1],[1,0.1],[1,0.3],[1,0.5],[1,0.7],[1,0.9]];fillColor=#d5e8d4;strokeColor=#82b366;" parent="1" vertex="1">
                    <mxGeometry x="640" y="1360" width="160" height="30" as="geometry"/>
                </mxCell>
                <mxCell id="8oTXb7bl4t1_1FCLeJAp-60" value="&lt;div style=&quot;text-align: left&quot;&gt;mero:hasProperPart&lt;/div&gt;" style="edgeStyle=orthogonalEdgeStyle;rounded=0;orthogonalLoop=1;jettySize=auto;html=1;entryX=1;entryY=0.7;entryDx=0;entryDy=0;strokeWidth=3;fillColor=#e51400;strokeColor=#B20000;" parent="1" source="8oTXb7bl4t1_1FCLeJAp-4" target="8oTXb7bl4t1_1FCLeJAp-6" edge="1">
                    <mxGeometry relative="1" as="geometry">
                        <Array as="points">
                            <mxPoint x="930" y="1405"/>
                            <mxPoint x="930" y="1511"/>
                        </Array>
                    </mxGeometry>
                </mxCell>
                <mxCell id="8oTXb7bl4t1_1FCLeJAp-4" value="&lt;u&gt;method:&lt;/u&gt;Material" style="rounded=0;whiteSpace=wrap;html=1;snapToPoint=1;points=[[0.1,0],[0.2,0],[0.3,0],[0.4,0],[0.5,0],[0.6,0],[0.7,0],[0.8,0],[0.9,0],[0,0.1],[0,0.3],[0,0.5],[0,0.7],[0,0.9],[0.1,1],[0.2,1],[0.3,1],[0.4,1],[0.5,1],[0.6,1],[0.7,1],[0.8,1],[0.9,1],[1,0.1],[1,0.3],[1,0.5],[1,0.7],[1,0.9]];fillColor=#fff2cc;strokeColor=#d6b656;" parent="1" vertex="1">
                    <mxGeometry x="640" y="1390" width="160" height="30" as="geometry"/>
                </mxCell>
                <mxCell id="8oTXb7bl4t1_1FCLeJAp-5" value="sd:SpecimenType" style="rounded=0;whiteSpace=wrap;html=1;snapToPoint=1;points=[[0.1,0],[0.2,0],[0.3,0],[0.4,0],[0.5,0],[0.6,0],[0.7,0],[0.8,0],[0.9,0],[0,0.1],[0,0.3],[0,0.5],[0,0.7],[0,0.9],[0.1,1],[0.2,1],[0.3,1],[0.4,1],[0.5,1],[0.6,1],[0.7,1],[0.8,1],[0.9,1],[1,0.1],[1,0.3],[1,0.5],[1,0.7],[1,0.9]];fillColor=#d5e8d4;strokeColor=#82b366;" parent="1" vertex="1">
                    <mxGeometry x="640" y="1460" width="160" height="30" as="geometry"/>
                </mxCell>
                <mxCell id="8oTXb7bl4t1_1FCLeJAp-61" style="edgeStyle=orthogonalEdgeStyle;rounded=0;orthogonalLoop=1;jettySize=auto;html=1;entryX=1;entryY=0.7;entryDx=0;entryDy=0;strokeWidth=3;fillColor=#e51400;strokeColor=#B20000;" parent="1" source="8oTXb7bl4t1_1FCLeJAp-6" target="8oTXb7bl4t1_1FCLeJAp-10" edge="1">
                    <mxGeometry relative="1" as="geometry">
                        <Array as="points">
                            <mxPoint x="910" y="1505"/>
                            <mxPoint x="910" y="1702"/>
                            <mxPoint x="800" y="1702"/>
                        </Array>
                    </mxGeometry>
                </mxCell>
                <mxCell id="8oTXb7bl4t1_1FCLeJAp-62" value="semiotics:hasSign" style="edgeLabel;html=1;align=center;verticalAlign=middle;resizable=0;points=[];" parent="8oTXb7bl4t1_1FCLeJAp-61" vertex="1" connectable="0">
                    <mxGeometry x="0.274" y="-2" relative="1" as="geometry">
                        <mxPoint as="offset"/>
                    </mxGeometry>
                </mxCell>
                <mxCell id="8oTXb7bl4t1_1FCLeJAp-6" value="&lt;u&gt;method:&lt;/u&gt;SpecimenType" style="rounded=0;whiteSpace=wrap;html=1;snapToPoint=1;points=[[0.1,0],[0.2,0],[0.3,0],[0.4,0],[0.5,0],[0.6,0],[0.7,0],[0.8,0],[0.9,0],[0,0.1],[0,0.3],[0,0.5],[0,0.7],[0,0.9],[0.1,1],[0.2,1],[0.3,1],[0.4,1],[0.5,1],[0.6,1],[0.7,1],[0.8,1],[0.9,1],[1,0.1],[1,0.3],[1,0.5],[1,0.7],[1,0.9]];fillColor=#fff2cc;strokeColor=#d6b656;" parent="1" vertex="1">
                    <mxGeometry x="640" y="1490" width="160" height="30" as="geometry"/>
                </mxCell>
                <mxCell id="1ToxxJiLn5HaGjlDsYj8-2" value="owl:hasKey" style="edgeStyle=orthogonalEdgeStyle;rounded=0;orthogonalLoop=1;jettySize=auto;html=1;entryX=0.5;entryY=1;entryDx=0;entryDy=0;" parent="1" source="8oTXb7bl4t1_1FCLeJAp-7" target="1ToxxJiLn5HaGjlDsYj8-1" edge="1">
                    <mxGeometry relative="1" as="geometry"/>
                </mxCell>
                <mxCell id="8oTXb7bl4t1_1FCLeJAp-7" value="sd:Tester" style="rounded=0;whiteSpace=wrap;html=1;snapToPoint=1;points=[[0.1,0],[0.2,0],[0.3,0],[0.4,0],[0.5,0],[0.6,0],[0.7,0],[0.8,0],[0.9,0],[0,0.1],[0,0.3],[0,0.5],[0,0.7],[0,0.9],[0.1,1],[0.2,1],[0.3,1],[0.4,1],[0.5,1],[0.6,1],[0.7,1],[0.8,1],[0.9,1],[1,0.1],[1,0.3],[1,0.5],[1,0.7],[1,0.9]];fillColor=#d5e8d4;strokeColor=#82b366;" parent="1" vertex="1">
                    <mxGeometry x="1290" y="1510" width="160" height="30" as="geometry"/>
                </mxCell>
                <mxCell id="8oTXb7bl4t1_1FCLeJAp-8" value="&lt;u&gt;method:&lt;/u&gt;Tester" style="rounded=0;whiteSpace=wrap;html=1;snapToPoint=1;points=[[0.1,0],[0.2,0],[0.3,0],[0.4,0],[0.5,0],[0.6,0],[0.7,0],[0.8,0],[0.9,0],[0,0.1],[0,0.3],[0,0.5],[0,0.7],[0,0.9],[0.1,1],[0.2,1],[0.3,1],[0.4,1],[0.5,1],[0.6,1],[0.7,1],[0.8,1],[0.9,1],[1,0.1],[1,0.3],[1,0.5],[1,0.7],[1,0.9]];fillColor=#fff2cc;strokeColor=#d6b656;" parent="1" vertex="1">
                    <mxGeometry x="1290" y="1540" width="160" height="30" as="geometry"/>
                </mxCell>
                <mxCell id="8oTXb7bl4t1_1FCLeJAp-9" value="sd:SampleIdentifier-2" style="rounded=0;whiteSpace=wrap;html=1;snapToPoint=1;points=[[0.1,0],[0.2,0],[0.3,0],[0.4,0],[0.5,0],[0.6,0],[0.7,0],[0.8,0],[0.9,0],[0,0.1],[0,0.3],[0,0.5],[0,0.7],[0,0.9],[0.1,1],[0.2,1],[0.3,1],[0.4,1],[0.5,1],[0.6,1],[0.7,1],[0.8,1],[0.9,1],[1,0.1],[1,0.3],[1,0.5],[1,0.7],[1,0.9]];fillColor=#d5e8d4;strokeColor=#82b366;" parent="1" vertex="1">
                    <mxGeometry x="640" y="1650" width="160" height="30" as="geometry"/>
                </mxCell>
                <mxCell id="8oTXb7bl4t1_1FCLeJAp-10" value="&lt;u&gt;method:&lt;/u&gt;SampleIdentifier-2" style="rounded=0;whiteSpace=wrap;html=1;snapToPoint=1;points=[[0.1,0],[0.2,0],[0.3,0],[0.4,0],[0.5,0],[0.6,0],[0.7,0],[0.8,0],[0.9,0],[0,0.1],[0,0.3],[0,0.5],[0,0.7],[0,0.9],[0.1,1],[0.2,1],[0.3,1],[0.4,1],[0.5,1],[0.6,1],[0.7,1],[0.8,1],[0.9,1],[1,0.1],[1,0.3],[1,0.5],[1,0.7],[1,0.9]];fillColor=#fff2cc;strokeColor=#d6b656;" parent="1" vertex="1">
                    <mxGeometry x="640" y="1680" width="160" height="30" as="geometry"/>
                </mxCell>
                <mxCell id="8oTXb7bl4t1_1FCLeJAp-11" value="sd:OriginalGaugeLength" style="rounded=0;whiteSpace=wrap;html=1;snapToPoint=1;points=[[0.1,0],[0.2,0],[0.3,0],[0.4,0],[0.5,0],[0.6,0],[0.7,0],[0.8,0],[0.9,0],[0,0.1],[0,0.3],[0,0.5],[0,0.7],[0,0.9],[0.1,1],[0.2,1],[0.3,1],[0.4,1],[0.5,1],[0.6,1],[0.7,1],[0.8,1],[0.9,1],[1,0.1],[1,0.3],[1,0.5],[1,0.7],[1,0.9]];fillColor=#d5e8d4;strokeColor=#82b366;" parent="1" vertex="1">
                    <mxGeometry x="640" y="1740" width="170" height="30" as="geometry"/>
                </mxCell>
                <mxCell id="8oTXb7bl4t1_1FCLeJAp-12" value="&lt;u&gt;method:&lt;/u&gt;OriginalGaugeLength" style="rounded=0;whiteSpace=wrap;html=1;snapToPoint=1;points=[[0.1,0],[0.2,0],[0.3,0],[0.4,0],[0.5,0],[0.6,0],[0.7,0],[0.8,0],[0.9,0],[0,0.1],[0,0.3],[0,0.5],[0,0.7],[0,0.9],[0.1,1],[0.2,1],[0.3,1],[0.4,1],[0.5,1],[0.6,1],[0.7,1],[0.8,1],[0.9,1],[1,0.1],[1,0.3],[1,0.5],[1,0.7],[1,0.9]];fillColor=#fff2cc;strokeColor=#d6b656;" parent="1" vertex="1">
                    <mxGeometry x="640" y="1770" width="170" height="30" as="geometry"/>
                </mxCell>
                <mxCell id="8oTXb7bl4t1_1FCLeJAp-13" value="sd:ParallelLength" style="rounded=0;whiteSpace=wrap;html=1;snapToPoint=1;points=[[0.1,0],[0.2,0],[0.3,0],[0.4,0],[0.5,0],[0.6,0],[0.7,0],[0.8,0],[0.9,0],[0,0.1],[0,0.3],[0,0.5],[0,0.7],[0,0.9],[0.1,1],[0.2,1],[0.3,1],[0.4,1],[0.5,1],[0.6,1],[0.7,1],[0.8,1],[0.9,1],[1,0.1],[1,0.3],[1,0.5],[1,0.7],[1,0.9]];fillColor=#d5e8d4;strokeColor=#82b366;" parent="1" vertex="1">
                    <mxGeometry x="640" y="1840" width="160" height="30" as="geometry"/>
                </mxCell>
                <mxCell id="8oTXb7bl4t1_1FCLeJAp-14" value="&lt;u&gt;method:&lt;/u&gt;ParallelLength" style="rounded=0;whiteSpace=wrap;html=1;snapToPoint=1;points=[[0.1,0],[0.2,0],[0.3,0],[0.4,0],[0.5,0],[0.6,0],[0.7,0],[0.8,0],[0.9,0],[0,0.1],[0,0.3],[0,0.5],[0,0.7],[0,0.9],[0.1,1],[0.2,1],[0.3,1],[0.4,1],[0.5,1],[0.6,1],[0.7,1],[0.8,1],[0.9,1],[1,0.1],[1,0.3],[1,0.5],[1,0.7],[1,0.9]];fillColor=#fff2cc;strokeColor=#d6b656;" parent="1" vertex="1">
                    <mxGeometry x="640" y="1870" width="160" height="30" as="geometry"/>
                </mxCell>
                <mxCell id="8oTXb7bl4t1_1FCLeJAp-15" value="sd:SpecimenThickness" style="rounded=0;whiteSpace=wrap;html=1;snapToPoint=1;points=[[0.1,0],[0.2,0],[0.3,0],[0.4,0],[0.5,0],[0.6,0],[0.7,0],[0.8,0],[0.9,0],[0,0.1],[0,0.3],[0,0.5],[0,0.7],[0,0.9],[0.1,1],[0.2,1],[0.3,1],[0.4,1],[0.5,1],[0.6,1],[0.7,1],[0.8,1],[0.9,1],[1,0.1],[1,0.3],[1,0.5],[1,0.7],[1,0.9]];fillColor=#d5e8d4;strokeColor=#82b366;" parent="1" vertex="1">
                    <mxGeometry x="640" y="1940" width="160" height="30" as="geometry"/>
                </mxCell>
                <mxCell id="8oTXb7bl4t1_1FCLeJAp-16" value="&lt;u&gt;method:&lt;/u&gt;SpecimenThickness" style="rounded=0;whiteSpace=wrap;html=1;snapToPoint=1;points=[[0.1,0],[0.2,0],[0.3,0],[0.4,0],[0.5,0],[0.6,0],[0.7,0],[0.8,0],[0.9,0],[0,0.1],[0,0.3],[0,0.5],[0,0.7],[0,0.9],[0.1,1],[0.2,1],[0.3,1],[0.4,1],[0.5,1],[0.6,1],[0.7,1],[0.8,1],[0.9,1],[1,0.1],[1,0.3],[1,0.5],[1,0.7],[1,0.9]];fillColor=#fff2cc;strokeColor=#d6b656;" parent="1" vertex="1">
                    <mxGeometry x="640" y="1970" width="160" height="30" as="geometry"/>
                </mxCell>
                <mxCell id="8oTXb7bl4t1_1FCLeJAp-17" value="sd:SpecimenWidth" style="rounded=0;whiteSpace=wrap;html=1;snapToPoint=1;points=[[0.1,0],[0.2,0],[0.3,0],[0.4,0],[0.5,0],[0.6,0],[0.7,0],[0.8,0],[0.9,0],[0,0.1],[0,0.3],[0,0.5],[0,0.7],[0,0.9],[0.1,1],[0.2,1],[0.3,1],[0.4,1],[0.5,1],[0.6,1],[0.7,1],[0.8,1],[0.9,1],[1,0.1],[1,0.3],[1,0.5],[1,0.7],[1,0.9]];fillColor=#d5e8d4;strokeColor=#82b366;" parent="1" vertex="1">
                    <mxGeometry x="640" y="2030" width="160" height="30" as="geometry"/>
                </mxCell>
                <mxCell id="8oTXb7bl4t1_1FCLeJAp-18" value="&lt;u&gt;method:&lt;/u&gt;SpecimenWidth" style="rounded=0;whiteSpace=wrap;html=1;snapToPoint=1;points=[[0.1,0],[0.2,0],[0.3,0],[0.4,0],[0.5,0],[0.6,0],[0.7,0],[0.8,0],[0.9,0],[0,0.1],[0,0.3],[0,0.5],[0,0.7],[0,0.9],[0.1,1],[0.2,1],[0.3,1],[0.4,1],[0.5,1],[0.6,1],[0.7,1],[0.8,1],[0.9,1],[1,0.1],[1,0.3],[1,0.5],[1,0.7],[1,0.9]];fillColor=#fff2cc;strokeColor=#d6b656;" parent="1" vertex="1">
                    <mxGeometry x="640" y="2060" width="160" height="30" as="geometry"/>
                </mxCell>
                <mxCell id="8oTXb7bl4t1_1FCLeJAp-19" value="sd:TestingRate" style="rounded=0;whiteSpace=wrap;html=1;snapToPoint=1;points=[[0.1,0],[0.2,0],[0.3,0],[0.4,0],[0.5,0],[0.6,0],[0.7,0],[0.8,0],[0.9,0],[0,0.1],[0,0.3],[0,0.5],[0,0.7],[0,0.9],[0.1,1],[0.2,1],[0.3,1],[0.4,1],[0.5,1],[0.6,1],[0.7,1],[0.8,1],[0.9,1],[1,0.1],[1,0.3],[1,0.5],[1,0.7],[1,0.9]];fillColor=#d5e8d4;strokeColor=#82b366;" parent="1" vertex="1">
                    <mxGeometry x="640" y="2120" width="160" height="30" as="geometry"/>
                </mxCell>
                <mxCell id="8oTXb7bl4t1_1FCLeJAp-20" value="&lt;u&gt;method:&lt;/u&gt;TestingRate" style="rounded=0;whiteSpace=wrap;html=1;snapToPoint=1;points=[[0.1,0],[0.2,0],[0.3,0],[0.4,0],[0.5,0],[0.6,0],[0.7,0],[0.8,0],[0.9,0],[0,0.1],[0,0.3],[0,0.5],[0,0.7],[0,0.9],[0.1,1],[0.2,1],[0.3,1],[0.4,1],[0.5,1],[0.6,1],[0.7,1],[0.8,1],[0.9,1],[1,0.1],[1,0.3],[1,0.5],[1,0.7],[1,0.9]];fillColor=#fff2cc;strokeColor=#d6b656;" parent="1" vertex="1">
                    <mxGeometry x="640" y="2150" width="160" height="30" as="geometry"/>
                </mxCell>
                <mxCell id="8oTXb7bl4t1_1FCLeJAp-21" value="sd:Preload" style="rounded=0;whiteSpace=wrap;html=1;snapToPoint=1;points=[[0.1,0],[0.2,0],[0.3,0],[0.4,0],[0.5,0],[0.6,0],[0.7,0],[0.8,0],[0.9,0],[0,0.1],[0,0.3],[0,0.5],[0,0.7],[0,0.9],[0.1,1],[0.2,1],[0.3,1],[0.4,1],[0.5,1],[0.6,1],[0.7,1],[0.8,1],[0.9,1],[1,0.1],[1,0.3],[1,0.5],[1,0.7],[1,0.9]];fillColor=#d5e8d4;strokeColor=#82b366;" parent="1" vertex="1">
                    <mxGeometry x="640" y="2210" width="160" height="30" as="geometry"/>
                </mxCell>
                <mxCell id="8oTXb7bl4t1_1FCLeJAp-22" value="&lt;u&gt;method:&lt;/u&gt;Preload" style="rounded=0;whiteSpace=wrap;html=1;snapToPoint=1;points=[[0.1,0],[0.2,0],[0.3,0],[0.4,0],[0.5,0],[0.6,0],[0.7,0],[0.8,0],[0.9,0],[0,0.1],[0,0.3],[0,0.5],[0,0.7],[0,0.9],[0.1,1],[0.2,1],[0.3,1],[0.4,1],[0.5,1],[0.6,1],[0.7,1],[0.8,1],[0.9,1],[1,0.1],[1,0.3],[1,0.5],[1,0.7],[1,0.9]];fillColor=#fff2cc;strokeColor=#d6b656;" parent="1" vertex="1">
                    <mxGeometry x="640" y="2240" width="160" height="30" as="geometry"/>
                </mxCell>
                <mxCell id="8oTXb7bl4t1_1FCLeJAp-23" value="sd:Temperature" style="rounded=0;whiteSpace=wrap;html=1;snapToPoint=1;points=[[0.1,0],[0.2,0],[0.3,0],[0.4,0],[0.5,0],[0.6,0],[0.7,0],[0.8,0],[0.9,0],[0,0.1],[0,0.3],[0,0.5],[0,0.7],[0,0.9],[0.1,1],[0.2,1],[0.3,1],[0.4,1],[0.5,1],[0.6,1],[0.7,1],[0.8,1],[0.9,1],[1,0.1],[1,0.3],[1,0.5],[1,0.7],[1,0.9]];fillColor=#d5e8d4;strokeColor=#82b366;" parent="1" vertex="1">
                    <mxGeometry x="640" y="2300" width="160" height="30" as="geometry"/>
                </mxCell>
                <mxCell id="8oTXb7bl4t1_1FCLeJAp-24" value="&lt;u&gt;method:&lt;/u&gt;Temperature" style="rounded=0;whiteSpace=wrap;html=1;snapToPoint=1;points=[[0.1,0],[0.2,0],[0.3,0],[0.4,0],[0.5,0],[0.6,0],[0.7,0],[0.8,0],[0.9,0],[0,0.1],[0,0.3],[0,0.5],[0,0.7],[0,0.9],[0.1,1],[0.2,1],[0.3,1],[0.4,1],[0.5,1],[0.6,1],[0.7,1],[0.8,1],[0.9,1],[1,0.1],[1,0.3],[1,0.5],[1,0.7],[1,0.9]];fillColor=#fff2cc;strokeColor=#d6b656;" parent="1" vertex="1">
                    <mxGeometry x="640" y="2330" width="160" height="30" as="geometry"/>
                </mxCell>
                <mxCell id="8oTXb7bl4t1_1FCLeJAp-25" value="sd:Remark" style="rounded=0;whiteSpace=wrap;html=1;snapToPoint=1;points=[[0.1,0],[0.2,0],[0.3,0],[0.4,0],[0.5,0],[0.6,0],[0.7,0],[0.8,0],[0.9,0],[0,0.1],[0,0.3],[0,0.5],[0,0.7],[0,0.9],[0.1,1],[0.2,1],[0.3,1],[0.4,1],[0.5,1],[0.6,1],[0.7,1],[0.8,1],[0.9,1],[1,0.1],[1,0.3],[1,0.5],[1,0.7],[1,0.9]];fillColor=#d5e8d4;strokeColor=#82b366;" parent="1" vertex="1">
                    <mxGeometry x="640" y="2380" width="160" height="30" as="geometry"/>
                </mxCell>
                <mxCell id="8oTXb7bl4t1_1FCLeJAp-26" value="&lt;u&gt;method:&lt;/u&gt;Remark" style="rounded=0;whiteSpace=wrap;html=1;snapToPoint=1;points=[[0.1,0],[0.2,0],[0.3,0],[0.4,0],[0.5,0],[0.6,0],[0.7,0],[0.8,0],[0.9,0],[0,0.1],[0,0.3],[0,0.5],[0,0.7],[0,0.9],[0.1,1],[0.2,1],[0.3,1],[0.4,1],[0.5,1],[0.6,1],[0.7,1],[0.8,1],[0.9,1],[1,0.1],[1,0.3],[1,0.5],[1,0.7],[1,0.9]];fillColor=#fff2cc;strokeColor=#d6b656;" parent="1" vertex="1">
                    <mxGeometry x="640" y="2410" width="160" height="30" as="geometry"/>
                </mxCell>
                <mxCell id="8oTXb7bl4t1_1FCLeJAp-27" value="sd:TestTime" style="rounded=0;whiteSpace=wrap;html=1;snapToPoint=1;points=[[0.1,0],[0.2,0],[0.3,0],[0.4,0],[0.5,0],[0.6,0],[0.7,0],[0.8,0],[0.9,0],[0,0.1],[0,0.3],[0,0.5],[0,0.7],[0,0.9],[0.1,1],[0.2,1],[0.3,1],[0.4,1],[0.5,1],[0.6,1],[0.7,1],[0.8,1],[0.9,1],[1,0.1],[1,0.3],[1,0.5],[1,0.7],[1,0.9]];fillColor=#d5e8d4;strokeColor=#82b366;" parent="1" vertex="1">
                    <mxGeometry x="640" y="2470" width="160" height="30" as="geometry"/>
                </mxCell>
                <mxCell id="8oTXb7bl4t1_1FCLeJAp-28" value="&lt;u&gt;method:&lt;/u&gt;TestTime" style="rounded=0;whiteSpace=wrap;html=1;snapToPoint=1;points=[[0.1,0],[0.2,0],[0.3,0],[0.4,0],[0.5,0],[0.6,0],[0.7,0],[0.8,0],[0.9,0],[0,0.1],[0,0.3],[0,0.5],[0,0.7],[0,0.9],[0.1,1],[0.2,1],[0.3,1],[0.4,1],[0.5,1],[0.6,1],[0.7,1],[0.8,1],[0.9,1],[1,0.1],[1,0.3],[1,0.5],[1,0.7],[1,0.9]];fillColor=#fff2cc;strokeColor=#d6b656;" parent="1" vertex="1">
                    <mxGeometry x="640" y="2500" width="160" height="30" as="geometry"/>
                </mxCell>
                <mxCell id="8oTXb7bl4t1_1FCLeJAp-32" style="edgeStyle=orthogonalEdgeStyle;rounded=0;orthogonalLoop=1;jettySize=auto;html=1;entryX=0;entryY=0.667;entryDx=0;entryDy=0;strokeWidth=3;fillColor=#b1ddf0;strokeColor=#10739e;entryPerimeter=0;" parent="1" source="52x7mqhV2QeOhI0MQU4t-2" target="8oTXb7bl4t1_1FCLeJAp-4" edge="1">
                    <mxGeometry relative="1" as="geometry">
                        <Array as="points">
                            <mxPoint x="132" y="1090"/>
                            <mxPoint x="140" y="1090"/>
                            <mxPoint x="140" y="1410"/>
                        </Array>
                        <mxPoint x="131.88235294117658" y="530.3529411764707" as="sourcePoint"/>
                        <mxPoint x="650" y="1071" as="targetPoint"/>
                    </mxGeometry>
                </mxCell>
                <mxCell id="8oTXb7bl4t1_1FCLeJAp-33" value="mt:hasInput" style="edgeLabel;html=1;align=center;verticalAlign=middle;resizable=0;points=[];" parent="8oTXb7bl4t1_1FCLeJAp-32" vertex="1" connectable="0">
                    <mxGeometry x="0.4824" y="3" relative="1" as="geometry">
                        <mxPoint x="72" y="-2" as="offset"/>
                    </mxGeometry>
                </mxCell>
                <mxCell id="8oTXb7bl4t1_1FCLeJAp-34" style="edgeStyle=orthogonalEdgeStyle;rounded=0;orthogonalLoop=1;jettySize=auto;html=1;entryX=0;entryY=0.7;entryDx=0;entryDy=0;strokeWidth=3;fillColor=#b1ddf0;strokeColor=#10739e;" parent="1" source="52x7mqhV2QeOhI0MQU4t-2" target="8oTXb7bl4t1_1FCLeJAp-6" edge="1">
                    <mxGeometry relative="1" as="geometry">
                        <Array as="points">
                            <mxPoint x="150" y="1100"/>
                            <mxPoint x="150" y="1511"/>
                        </Array>
                        <mxPoint x="149.52941176470586" y="530.3529411764707" as="sourcePoint"/>
                        <mxPoint x="650" y="1420.0100000000002" as="targetPoint"/>
                    </mxGeometry>
                </mxCell>
                <mxCell id="8oTXb7bl4t1_1FCLeJAp-35" value="mt:hasInput" style="edgeLabel;html=1;align=center;verticalAlign=middle;resizable=0;points=[];" parent="8oTXb7bl4t1_1FCLeJAp-34" vertex="1" connectable="0">
                    <mxGeometry x="0.4824" y="3" relative="1" as="geometry">
                        <mxPoint x="103" y="2" as="offset"/>
                    </mxGeometry>
                </mxCell>
                <mxCell id="8oTXb7bl4t1_1FCLeJAp-36" style="edgeStyle=orthogonalEdgeStyle;rounded=0;orthogonalLoop=1;jettySize=auto;html=1;entryX=0;entryY=0.5;entryDx=0;entryDy=0;strokeWidth=3;fillColor=#f0a30a;strokeColor=#BD7000;" parent="1" source="52x7mqhV2QeOhI0MQU4t-2" target="8oTXb7bl4t1_1FCLeJAp-8" edge="1">
                    <mxGeometry relative="1" as="geometry">
                        <Array as="points">
                            <mxPoint x="168" y="1110"/>
                            <mxPoint x="160" y="1110"/>
                            <mxPoint x="160" y="1600"/>
                            <mxPoint x="640" y="1600"/>
                        </Array>
                        <mxPoint x="168.35294117647072" y="530.3529411764707" as="sourcePoint"/>
                        <mxPoint x="650" y="1520.9999999999995" as="targetPoint"/>
                    </mxGeometry>
                </mxCell>
                <mxCell id="8oTXb7bl4t1_1FCLeJAp-37" value="mero:hasMember" style="edgeLabel;html=1;align=center;verticalAlign=middle;resizable=0;points=[];" parent="8oTXb7bl4t1_1FCLeJAp-36" vertex="1" connectable="0">
                    <mxGeometry x="0.4824" y="3" relative="1" as="geometry">
                        <mxPoint x="112" y="3" as="offset"/>
                    </mxGeometry>
                </mxCell>
                <mxCell id="8oTXb7bl4t1_1FCLeJAp-38" style="edgeStyle=orthogonalEdgeStyle;rounded=0;orthogonalLoop=1;jettySize=auto;html=1;strokeWidth=3;fillColor=#f0a30a;strokeColor=#BD7000;exitX=0.7;exitY=1;exitDx=0;exitDy=0;" parent="1" source="52x7mqhV2QeOhI0MQU4t-2" edge="1">
                    <mxGeometry relative="1" as="geometry">
                        <Array as="points">
                            <mxPoint x="178" y="520"/>
                            <mxPoint x="178" y="1120"/>
                            <mxPoint x="170" y="1120"/>
                            <mxPoint x="170" y="1700"/>
                        </Array>
                        <mxPoint x="178.35294117647072" y="540.3529411764707" as="sourcePoint"/>
                        <mxPoint x="640" y="1700" as="targetPoint"/>
                    </mxGeometry>
                </mxCell>
                <mxCell id="8oTXb7bl4t1_1FCLeJAp-39" value="mero:hasMember" style="edgeLabel;html=1;align=center;verticalAlign=middle;resizable=0;points=[];" parent="8oTXb7bl4t1_1FCLeJAp-38" vertex="1" connectable="0">
                    <mxGeometry x="0.4824" y="3" relative="1" as="geometry">
                        <mxPoint x="140" y="3" as="offset"/>
                    </mxGeometry>
                </mxCell>
                <mxCell id="8oTXb7bl4t1_1FCLeJAp-40" style="edgeStyle=orthogonalEdgeStyle;rounded=0;orthogonalLoop=1;jettySize=auto;html=1;entryX=0;entryY=0.5;entryDx=0;entryDy=0;strokeWidth=3;fillColor=#b1ddf0;strokeColor=#10739e;" parent="1" target="8oTXb7bl4t1_1FCLeJAp-12" edge="1">
                    <mxGeometry relative="1" as="geometry">
                        <Array as="points">
                            <mxPoint x="188" y="1130"/>
                            <mxPoint x="180" y="1130"/>
                            <mxPoint x="180" y="1780"/>
                            <mxPoint x="640" y="1780"/>
                        </Array>
                        <mxPoint x="188" y="520" as="sourcePoint"/>
                        <mxPoint x="670" y="1540.9999999999995" as="targetPoint"/>
                    </mxGeometry>
                </mxCell>
                <mxCell id="8oTXb7bl4t1_1FCLeJAp-41" value="mt:hasInput" style="edgeLabel;html=1;align=center;verticalAlign=middle;resizable=0;points=[];" parent="8oTXb7bl4t1_1FCLeJAp-40" vertex="1" connectable="0">
                    <mxGeometry x="0.4824" y="3" relative="1" as="geometry">
                        <mxPoint x="164" as="offset"/>
                    </mxGeometry>
                </mxCell>
                <mxCell id="8oTXb7bl4t1_1FCLeJAp-42" style="edgeStyle=orthogonalEdgeStyle;rounded=0;orthogonalLoop=1;jettySize=auto;html=1;entryX=0;entryY=0.5;entryDx=0;entryDy=0;strokeWidth=3;fillColor=#b1ddf0;strokeColor=#10739e;" parent="1" source="52x7mqhV2QeOhI0MQU4t-2" target="8oTXb7bl4t1_1FCLeJAp-14" edge="1">
                    <mxGeometry relative="1" as="geometry">
                        <Array as="points">
                            <mxPoint x="198" y="1140"/>
                            <mxPoint x="190" y="1140"/>
                            <mxPoint x="190" y="1885"/>
                        </Array>
                        <mxPoint x="198.35294117647072" y="560.3529411764707" as="sourcePoint"/>
                        <mxPoint x="680" y="1550.9999999999995" as="targetPoint"/>
                    </mxGeometry>
                </mxCell>
                <mxCell id="8oTXb7bl4t1_1FCLeJAp-43" value="mt:hasInput" style="edgeLabel;html=1;align=center;verticalAlign=middle;resizable=0;points=[];" parent="8oTXb7bl4t1_1FCLeJAp-42" vertex="1" connectable="0">
                    <mxGeometry x="0.4824" y="3" relative="1" as="geometry">
                        <mxPoint x="167" y="22" as="offset"/>
                    </mxGeometry>
                </mxCell>
                <mxCell id="8oTXb7bl4t1_1FCLeJAp-44" style="edgeStyle=orthogonalEdgeStyle;rounded=0;orthogonalLoop=1;jettySize=auto;html=1;entryX=0;entryY=0.7;entryDx=0;entryDy=0;strokeWidth=3;fillColor=#b1ddf0;strokeColor=#10739e;" parent="1" source="52x7mqhV2QeOhI0MQU4t-2" target="8oTXb7bl4t1_1FCLeJAp-16" edge="1">
                    <mxGeometry relative="1" as="geometry">
                        <Array as="points">
                            <mxPoint x="208" y="1150"/>
                            <mxPoint x="200" y="1150"/>
                            <mxPoint x="200" y="1991"/>
                        </Array>
                        <mxPoint x="208.35294117647072" y="570.3529411764707" as="sourcePoint"/>
                        <mxPoint x="690" y="1560.9999999999995" as="targetPoint"/>
                    </mxGeometry>
                </mxCell>
                <mxCell id="8oTXb7bl4t1_1FCLeJAp-45" value="mt:hasInput" style="edgeLabel;html=1;align=center;verticalAlign=middle;resizable=0;points=[];" parent="8oTXb7bl4t1_1FCLeJAp-44" vertex="1" connectable="0">
                    <mxGeometry x="0.4824" y="3" relative="1" as="geometry">
                        <mxPoint x="157" y="56" as="offset"/>
                    </mxGeometry>
                </mxCell>
                <mxCell id="8oTXb7bl4t1_1FCLeJAp-46" style="edgeStyle=orthogonalEdgeStyle;rounded=0;orthogonalLoop=1;jettySize=auto;html=1;entryX=0;entryY=0.667;entryDx=0;entryDy=0;strokeWidth=3;fillColor=#b1ddf0;strokeColor=#10739e;entryPerimeter=0;" parent="1" source="52x7mqhV2QeOhI0MQU4t-2" target="8oTXb7bl4t1_1FCLeJAp-18" edge="1">
                    <mxGeometry relative="1" as="geometry">
                        <Array as="points">
                            <mxPoint x="218" y="1160"/>
                            <mxPoint x="210" y="1160"/>
                            <mxPoint x="210" y="2070"/>
                            <mxPoint x="640" y="2070"/>
                        </Array>
                        <mxPoint x="218.35294117647072" y="580.3529411764707" as="sourcePoint"/>
                        <mxPoint x="700" y="1570.9999999999995" as="targetPoint"/>
                    </mxGeometry>
                </mxCell>
                <mxCell id="8oTXb7bl4t1_1FCLeJAp-47" value="mt:hasInput" style="edgeLabel;html=1;align=center;verticalAlign=middle;resizable=0;points=[];" parent="8oTXb7bl4t1_1FCLeJAp-46" vertex="1" connectable="0">
                    <mxGeometry x="0.4824" y="3" relative="1" as="geometry">
                        <mxPoint x="147" y="77" as="offset"/>
                    </mxGeometry>
                </mxCell>
                <mxCell id="8oTXb7bl4t1_1FCLeJAp-48" style="edgeStyle=orthogonalEdgeStyle;rounded=0;orthogonalLoop=1;jettySize=auto;html=1;strokeWidth=3;fillColor=#b1ddf0;strokeColor=#10739e;" parent="1" edge="1">
                    <mxGeometry relative="1" as="geometry">
                        <Array as="points">
                            <mxPoint x="228" y="1170"/>
                            <mxPoint x="220" y="1170"/>
                            <mxPoint x="220" y="2170"/>
                        </Array>
                        <mxPoint x="200" y="520" as="sourcePoint"/>
                        <mxPoint x="640" y="2170" as="targetPoint"/>
                    </mxGeometry>
                </mxCell>
                <mxCell id="8oTXb7bl4t1_1FCLeJAp-49" value="mt:hasInput" style="edgeLabel;html=1;align=center;verticalAlign=middle;resizable=0;points=[];" parent="8oTXb7bl4t1_1FCLeJAp-48" vertex="1" connectable="0">
                    <mxGeometry x="0.4824" y="3" relative="1" as="geometry">
                        <mxPoint x="137" y="125" as="offset"/>
                    </mxGeometry>
                </mxCell>
                <mxCell id="8oTXb7bl4t1_1FCLeJAp-50" style="edgeStyle=orthogonalEdgeStyle;rounded=0;orthogonalLoop=1;jettySize=auto;html=1;entryX=0;entryY=0.7;entryDx=0;entryDy=0;strokeWidth=3;fillColor=#b1ddf0;strokeColor=#10739e;" parent="1" source="52x7mqhV2QeOhI0MQU4t-2" target="8oTXb7bl4t1_1FCLeJAp-22" edge="1">
                    <mxGeometry relative="1" as="geometry">
                        <Array as="points">
                            <mxPoint x="238" y="505"/>
                            <mxPoint x="238" y="1180"/>
                            <mxPoint x="230" y="1180"/>
                            <mxPoint x="230" y="2250"/>
                            <mxPoint x="640" y="2250"/>
                        </Array>
                        <mxPoint x="238.35294117647072" y="600.3529411764707" as="sourcePoint"/>
                        <mxPoint x="720" y="1590.9999999999995" as="targetPoint"/>
                    </mxGeometry>
                </mxCell>
                <mxCell id="8oTXb7bl4t1_1FCLeJAp-51" value="mt:hasInput" style="edgeLabel;html=1;align=center;verticalAlign=middle;resizable=0;points=[];" parent="8oTXb7bl4t1_1FCLeJAp-50" vertex="1" connectable="0">
                    <mxGeometry x="0.4824" y="3" relative="1" as="geometry">
                        <mxPoint x="147" y="144" as="offset"/>
                    </mxGeometry>
                </mxCell>
                <mxCell id="8oTXb7bl4t1_1FCLeJAp-52" style="edgeStyle=orthogonalEdgeStyle;rounded=0;orthogonalLoop=1;jettySize=auto;html=1;strokeWidth=3;fillColor=#b1ddf0;strokeColor=#10739e;" parent="1" source="52x7mqhV2QeOhI0MQU4t-2" edge="1">
                    <mxGeometry relative="1" as="geometry">
                        <Array as="points">
                            <mxPoint x="248" y="505"/>
                            <mxPoint x="248" y="1190"/>
                            <mxPoint x="240" y="1190"/>
                            <mxPoint x="240" y="2340"/>
                        </Array>
                        <mxPoint x="248.35294117647072" y="610.3529411764707" as="sourcePoint"/>
                        <mxPoint x="640" y="2340" as="targetPoint"/>
                    </mxGeometry>
                </mxCell>
                <mxCell id="8oTXb7bl4t1_1FCLeJAp-53" value="mt:hasInput" style="edgeLabel;html=1;align=center;verticalAlign=middle;resizable=0;points=[];" parent="8oTXb7bl4t1_1FCLeJAp-52" vertex="1" connectable="0">
                    <mxGeometry x="0.4824" y="3" relative="1" as="geometry">
                        <mxPoint x="117" y="190" as="offset"/>
                    </mxGeometry>
                </mxCell>
                <mxCell id="8oTXb7bl4t1_1FCLeJAp-54" style="edgeStyle=orthogonalEdgeStyle;rounded=0;orthogonalLoop=1;jettySize=auto;html=1;entryX=0;entryY=0.7;entryDx=0;entryDy=0;strokeWidth=3;fillColor=#f0a30a;strokeColor=#BD7000;" parent="1" target="8oTXb7bl4t1_1FCLeJAp-26" edge="1">
                    <mxGeometry relative="1" as="geometry">
                        <Array as="points">
                            <mxPoint x="258" y="1200"/>
                            <mxPoint x="250" y="1200"/>
                            <mxPoint x="250" y="2420"/>
                            <mxPoint x="640" y="2420"/>
                        </Array>
                        <mxPoint x="200" y="520" as="sourcePoint"/>
                        <mxPoint x="740" y="1610.9999999999995" as="targetPoint"/>
                    </mxGeometry>
                </mxCell>
                <mxCell id="8oTXb7bl4t1_1FCLeJAp-55" value="mero:hasMember" style="edgeLabel;html=1;align=center;verticalAlign=middle;resizable=0;points=[];" parent="8oTXb7bl4t1_1FCLeJAp-54" vertex="1" connectable="0">
                    <mxGeometry x="0.4824" y="3" relative="1" as="geometry">
                        <mxPoint x="137" y="211" as="offset"/>
                    </mxGeometry>
                </mxCell>
                <mxCell id="8oTXb7bl4t1_1FCLeJAp-56" style="edgeStyle=orthogonalEdgeStyle;rounded=0;orthogonalLoop=1;jettySize=auto;html=1;entryX=0;entryY=0.7;entryDx=0;entryDy=0;strokeWidth=3;fillColor=#f0a30a;strokeColor=#BD7000;" parent="1" source="52x7mqhV2QeOhI0MQU4t-2" target="8oTXb7bl4t1_1FCLeJAp-28" edge="1">
                    <mxGeometry relative="1" as="geometry">
                        <Array as="points">
                            <mxPoint x="268" y="505"/>
                            <mxPoint x="268" y="1210"/>
                            <mxPoint x="260" y="1210"/>
                            <mxPoint x="260" y="2515"/>
                            <mxPoint x="640" y="2515"/>
                        </Array>
                        <mxPoint x="268.3529411764707" y="630.3529411764707" as="sourcePoint"/>
                        <mxPoint x="750" y="1620.9999999999995" as="targetPoint"/>
                    </mxGeometry>
                </mxCell>
                <mxCell id="8oTXb7bl4t1_1FCLeJAp-57" value="mero:hasMember" style="edgeLabel;html=1;align=center;verticalAlign=middle;resizable=0;points=[];" parent="8oTXb7bl4t1_1FCLeJAp-56" vertex="1" connectable="0">
                    <mxGeometry x="0.4824" y="3" relative="1" as="geometry">
                        <mxPoint x="117" y="246" as="offset"/>
                    </mxGeometry>
                </mxCell>
                <mxCell id="8oTXb7bl4t1_1FCLeJAp-58" style="edgeStyle=orthogonalEdgeStyle;rounded=0;orthogonalLoop=1;jettySize=auto;html=1;strokeWidth=3;fillColor=#f0a30a;strokeColor=#BD7000;exitX=1;exitY=0.7;exitDx=0;exitDy=0;entryX=1;entryY=0.7;entryDx=0;entryDy=0;" parent="1" source="52x7mqhV2QeOhI0MQU4t-10" target="8oTXb7bl4t1_1FCLeJAp-8" edge="1">
                    <mxGeometry relative="1" as="geometry">
                        <Array as="points">
                            <mxPoint x="800" y="505"/>
                            <mxPoint x="1178" y="505"/>
                            <mxPoint x="1178" y="1611"/>
                        </Array>
                        <mxPoint x="1170.0023529411765" y="505.1729411764707" as="sourcePoint"/>
                        <mxPoint x="1120" y="1590" as="targetPoint"/>
                    </mxGeometry>
                </mxCell>
                <mxCell id="8oTXb7bl4t1_1FCLeJAp-59" value="mero:hasMember" style="edgeLabel;html=1;align=center;verticalAlign=middle;resizable=0;points=[];" parent="8oTXb7bl4t1_1FCLeJAp-58" vertex="1" connectable="0">
                    <mxGeometry x="0.4824" y="3" relative="1" as="geometry">
                        <mxPoint as="offset"/>
                    </mxGeometry>
                </mxCell>
                <mxCell id="1ToxxJiLn5HaGjlDsYj8-1" value="perc:hasSymbolData&amp;nbsp;" style="rounded=0;whiteSpace=wrap;html=1;snapToPoint=1;points=[[0.1,0],[0.2,0],[0.3,0],[0.4,0],[0.5,0],[0.6,0],[0.7,0],[0.8,0],[0.9,0],[0,0.1],[0,0.3],[0,0.5],[0,0.7],[0,0.9],[0.1,1],[0.2,1],[0.3,1],[0.4,1],[0.5,1],[0.6,1],[0.7,1],[0.8,1],[0.9,1],[1,0.1],[1,0.3],[1,0.5],[1,0.7],[1,0.9]];fillColor=#d5e8d4;strokeColor=#82b366;" parent="1" vertex="1">
                    <mxGeometry x="1290" y="1360" width="160" height="30" as="geometry"/>
                </mxCell>
            </root>
        </mxGraphModel>
    </diagram>
</mxfile>
